<?xml version="1.0" encoding="utf-8"?>
<!-- Svg Vector Icons : http://www.onlinewebfonts.com/icon -->
<!DOCTYPE svg PUBLIC "-//W3C//DTD SVG 1.1//EN" "http://www.w3.org/Graphics/SVG/1.1/DTD/svg11.dtd">
<svg version="1.1" xmlns="http://www.w3.org/2000/svg" xmlns:xlink="http://www.w3.org/1999/xlink" x="0px" y="0px" viewBox="0 0 1000 1000" enable-background="new 0 0 1000 1000" xml:space="preserve">
<metadata> Svg Vector Icons : http://www.onlinewebfonts.com/icon </metadata>
<g><g transform="translate(0.000000,511.000000) scale(0.100000,-0.100000)"><path d="M4579.9,4995c-1124.2-93-2224.6-607.6-3040-1423C211.9,2245.9-241.4,292.4,364.3-1480.9c554.2-1617,1909.9-2826.3,3590.2-3200.3c506.7-112.8,1207.3-142.5,1692.2-71.2c1442.8,209.8,2656.1,969.8,3443.8,2159.3C9632.8-1777.8,9898-891.1,9900,98.5c0,667-101,1213.2-336.5,1811c-554.2,1399.3-1710,2458.2-3166.7,2899.5C5838.7,4979.1,5187.5,5044.4,4579.9,4995z M5468.6,4680.3c382-43.5,833.2-148.4,1151.9-271.2c330.5-128.6,862.9-718.4,1122.2-1242.9c170.2-346.4,366.2-922.3,399.8-1179.6l11.9-93l-85.1,7.9c-564.1,59.4-1217.2,360.2-2052.4,944.1c-304.8,213.8-736.3,552.2-973.8,764c-419.6,376-847.1,647.2-1276.6,813.5c-65.3,25.7-126.7,51.5-134.6,59.4c-31.7,27.7,639.3,172.2,955.9,203.9C4744.2,4702,5302.3,4698.1,5468.6,4680.3z M3327.1,4244.9c443.3-120.7,967.8-401.8,1324.1-706.6c655.1-562.1,959.9-799.6,1391.4-1088.6c787.7-524.5,1464.6-815.4,1985.1-851l186.1-11.9l-7.9-481c-4-263.2-11.9-486.9-19.8-492.8c-7.9-7.9-132.6,17.8-277.1,57.4c-1155.8,312.7-2996.5,672.9-3946.5,773.9c-1399.3,146.5-2640.2,31.7-3311.2-304.8c-69.3-35.6-128.6-61.3-132.6-55.4c-17.8,15.8,132.6,510.6,219.7,726.4C1150,2831.7,1904.1,3665,2891.7,4185.5c122.7,65.3,235.5,114.8,251.4,108.9C3158.9,4290.4,3242,4268.6,3327.1,4244.9z M7962.4,3619.4c433.4-366.1,823.3-845.1,1086.6-1337.9c83.1-152.4,89.1-172.2,57.4-182.1c-87.1-25.7-625.4-150.4-631.3-146.5c-2,3.9-27.7,100.9-55.4,217.7c-144.5,607.6-397.8,1209.3-659.1,1577.4c-33.7,45.5-33.7,47.5,4,25.7C7786.2,3763.9,7875.3,3692.7,7962.4,3619.4z M9365.6,1537.3c97-298.9,176.1-659.1,207.8-957.9c25.7-221.7,29.7-556.1,7.9-546.2c-263.2,136.5-775.8,352.3-1021.3,431.5c-59.4,17.8-73.2,31.7-63.3,57.4c7.9,17.8,17.8,277.1,23.8,576l9.9,544.3l328.5,81.1c182.1,45.5,350.3,83.1,374.1,85.1C9272.6,1810.5,9286.4,1780.8,9365.6,1537.3z M3897.1,1139.5c999.5-106.9,2850-471,3964.3-777.8l292.9-81.1l-11.9-104.9c-15.8-142.5-100.9-591.8-152.4-815.4c-41.6-182.1-43.5-186-95-174.2c-356.3,75.2-680.8,65.3-1070.7-35.6c-334.5-85.1-2165.2-740.2-3097.4-1106.3c-631.4-247.4-1316.2-391.9-2147.4-449.3c-449.3-31.7-397.8-45.5-510.6,144.5c-227.6,376-395.8,779.8-506.7,1201.4C443.4-600.2,421.7-416.1,421.7,134.1v492.8l57.4,41.6c374.1,283,906.5,443.3,1714,516.6C2440.4,1206.8,3546.8,1177.1,3897.1,1139.5z M8708.5,80.6c318.6-120.7,575.9-237.5,736.3-332.5l134.6-79.2l-13.9-112.8c-43.5-362.2-158.3-805.5-298.8-1155.8c-91.1-223.7-281.1-607.6-302.8-607.6c-5.9,0-31.7,77.2-57.4,174.2c-51.5,203.8-237.5,589.8-380,791.7c-85.1,122.7-211.8,243.4-279.1,265.2c-9.9,3.9,11.9,136.6,49.5,298.8c37.6,160.3,89.1,415.6,112.8,568c25.7,152.4,51.5,277.1,57.4,277.1C8473,167.7,8581.8,128.2,8708.5,80.6z M7750.6-1100.9c55.4-11.9,102.9-29.7,102.9-39.6c0-37.6-164.3-463.1-265.2-688.8c-114.8-257.3-294.9-577.9-467.1-833.2C6600.7-3438.3,5868.4-4044,5035.1-4394.3l-213.8-89.1l-231.6,19.8c-1157.8,106.9-2287.9,674.9-3020.2,1522c-87.1,100.9-160.3,188-164.3,197.9c-2,7.9,136.6,25.7,306.8,37.6c758,59.4,1456.7,205.8,2020.7,421.6c880.7,338.4,2521.5,938.1,2913.4,1062.8C7113.3-1071.2,7416.1-1039.6,7750.6-1100.9z M8288.9-1447.3c209.8-302.8,354.3-690.7,385.9-1039.1l13.9-148.4L8564-2789.2c-647.2-805.5-1642.7-1407.2-2650.1-1603.1c-93-17.8-184.1-35.6-201.9-39.6c-59.4-13.8-39.6,4,108.8,91.1c451.3,267.2,1054.9,821.4,1401.3,1286.5c334.5,451.2,615.5,965.8,809.5,1488.3c71.2,194,112.8,283,130.6,275.1C8176.1-1294.9,8233.5-1366.1,8288.9-1447.3z"/></g></g>
</svg>