<?xml version="1.0" encoding="utf-8"?>
<!-- Generator: Adobe Illustrator 23.0.6, SVG Export Plug-In . SVG Version: 6.00 Build 0)  -->
<svg version="1.1" id="Layer_1" xmlns="http://www.w3.org/2000/svg" xmlns:xlink="http://www.w3.org/1999/xlink" x="0px" y="0px"
	 viewBox="0 0 226.57 88.94" style="enable-background:new 0 0 226.57 88.94;" xml:space="preserve">
<style type="text/css">
	.st0{fill:url(#SVGID_1_);}
	.st1{fill:url(#SVGID_2_);}
	.st2{fill:#FFFFFF;}
	.st3{fill:#1C95A6;}
	.st4{fill:#33A997;}
</style>
<g>
	<g>
		<g>
			<g>
				
					<linearGradient id="SVGID_1_" gradientUnits="userSpaceOnUse" x1="-180.6486" y1="-118.0271" x2="-180.6486" y2="-118.0271" gradientTransform="matrix(64.4447 -76.2599 76.2599 64.4447 20837.1055 -6123.9644)">
					<stop  offset="0" style="stop-color:#C4C5C7"/>
					<stop  offset="0.2631" style="stop-color:#FFFFFF"/>
					<stop  offset="0.5197" style="stop-color:#CCCDCF"/>
					<stop  offset="0.776" style="stop-color:#FFFFFF"/>
					<stop  offset="1" style="stop-color:#BEBFC1"/>
				</linearGradient>
				<path class="st0" d="M194.52,46.06"/>
			</g>
		</g>
		<g>
			<g>
				
					<linearGradient id="SVGID_2_" gradientUnits="userSpaceOnUse" x1="-180.4663" y1="-117.5565" x2="-180.4663" y2="-117.5565" gradientTransform="matrix(48.6219 -56.1307 56.1307 48.6219 15574.2793 -4346.9668)">
					<stop  offset="0" style="stop-color:#C4C5C7"/>
					<stop  offset="0.2631" style="stop-color:#FFFFFF"/>
					<stop  offset="0.5197" style="stop-color:#CCCDCF"/>
					<stop  offset="0.776" style="stop-color:#FFFFFF"/>
					<stop  offset="1" style="stop-color:#BEBFC1"/>
				</linearGradient>
				<path class="st1" d="M201.13,66.91"/>
			</g>
		</g>
		<g>
			<path class="st2" d="M193.49,37.26v1.16h6.66v-1.16H193.49z M200.15,33.24h-8.68c-0.47,0-0.77,0.15-0.77,0.47v4.71h1.04V34.4
				h8.41V33.24z"/>
		</g>
		<rect x="187.9" y="31.1" class="st3" width="14.83" height="40.76"/>
		<g>
			<path class="st2" d="M193.49,68.57v1.16h6.66v-1.16H193.49z M200.15,64.55h-8.68c-0.47,0-0.77,0.15-0.77,0.47v4.71h1.04v-4.02
				h8.41V64.55z"/>
			<path class="st2" d="M199.02,58.68h-7.55c-0.47,0-0.77,0.12-0.77,0.43v3.3h-1.5v1.17h1.9c0.32,0,0.64-0.21,0.64-0.46v-3.29h7.44
				v2.23h0.98v-2.64C200.15,58.97,199.57,58.68,199.02,58.68"/>
			<path class="st2" d="M199.02,52.98h-7.55c-0.47,0-0.77,0.12-0.77,0.43v3.3h-1.5v1.17h1.9c0.32,0,0.64-0.2,0.64-0.46v-3.28h7.44
				v2.23h0.98v-2.64C200.15,53.27,199.57,52.98,199.02,52.98"/>
			<path class="st2" d="M199.38,47.01h-7.9c-0.47,0-0.77,0.15-0.77,0.46v4.31h1.03v-3.61h7.38v3.61h1.04v-4.31
				C200.16,47.16,199.85,47.01,199.38,47.01"/>
			<path class="st2" d="M199.38,39.82h-7.83c-0.55,0-0.85,0.2-0.85,0.5v5.38h1.05v-1.12l8.4,1.24V44.7l-8.4-1.23v-2.51h7.36v2.23
				h1.04v-2.93C200.16,39.97,199.85,39.82,199.38,39.82"/>
			<path class="st2" d="M193.49,37.26v1.16h6.66v-1.16H193.49z M200.15,33.24h-8.68c-0.47,0-0.77,0.15-0.77,0.47v4.71h1.04V34.4
				h8.41V33.24z"/>
		</g>
		<rect x="101.35" y="31.08" width="5.82" height="10.8"/>
		<g>
			<path d="M99.9,49.71V32.6c0-0.93-0.39-1.52-1.2-1.52H84.35v4.64h1.76v9.35h-2.08v4.64h6.7c0.81,0,1.2-0.59,1.2-1.52V35.72h2.15
				v13.99H99.9z"/>
			<path d="M123.49,48.19V32.75c0-1.08-0.56-1.67-1.34-1.67h-13.89v4.67h2.08l-2.4,13.95h5.89l2.11-13.95h1.73v9.31"/>
		</g>
		<polygon points="138.51,35.72 138.51,31.08 124.41,31.08 124.41,35.72 130.93,35.72 130.93,49.71 136.75,49.71 136.75,35.72 		"/>
		<g>
			<path d="M145.64,54.16v-16.1h-5.85v16.1C139.79,54.16,145.64,54.16,145.64,54.16z M153.88,47.48V32.61
				c0-0.93-0.32-1.52-1.13-1.52h-12.97v4.64h8.28v10.2h-1.55v3.78h5.43C153.14,49.71,153.88,48.56,153.88,47.48"/>
			<path d="M171.27,49.26c0-0.11-0.07-0.3-0.14-0.45l-3.38-5.6l2.36-2.08c0.39-0.33,0.67-0.85,0.67-1.41v-7.38
				c0-0.82-0.35-1.26-1.3-1.26h-5.53v3.78h1.37v4.23l-4.55-8.01h-5.46c-0.32,0-0.49,0.18-0.49,0.48c0,0.11,0.04,0.26,0.14,0.41
				l3.45,5.94l-2.43,2.11c-0.39,0.33-0.67,0.85-0.67,1.41v7.01c0,0.82,0.35,1.26,1.31,1.26h5.5v-3.78h-1.34v-3.97l4.3,7.75h5.71
				C171.13,49.71,171.27,49.52,171.27,49.26"/>
			<path d="M178.08,49.71V38.06h-5.85v11.65H178.08z M185.62,49.71V32.6c0-0.93-0.39-1.52-1.2-1.52h-12.19v4.64h7.58v13.99H185.62z"
				/>
		</g>
		<rect x="84.06" y="55.52" width="3.46" height="16.34"/>
		<g>
			<path d="M100.21,70.52V56.69c0-0.78-0.33-1.17-1.05-1.17h-8.83c-0.69,0-1.16,0.42-1.16,1.24v6.8c0,0.72,0.28,1.1,1.02,1.1h5.18
				V62h-2.71v-3.68h4.09v10.77h-7.58v2.77h10.1C99.91,71.86,100.21,71.34,100.21,70.52"/>
		</g>
		<rect x="101.86" y="55.52" width="3.46" height="9.47"/>
		<rect x="106.84" y="62.39" width="5.5" height="2.64"/>
		<g>
			<path d="M123.55,71.86V69.1h-1.38V56.86c0-0.82-0.3-1.34-0.94-1.34h-8.19v2.77h5.67v10.8h-5.67v2.77H123.55z"/>
		</g>
		<rect x="124.19" y="55.52" width="3.46" height="9.47"/>
		<g>
			<path d="M140.03,71.86V69.1h-1.38V56.86c0-0.82-0.3-1.34-0.94-1.34h-8.19v2.77h5.67v10.8h-5.67v2.77H140.03z"/>
			<path d="M153.87,71.47c0-0.1-0.03-0.26-0.11-0.39l-2.96-5.11l2.13-2.05c0.33-0.29,0.53-0.75,0.53-1.24v-6.05
				c0-0.71-0.28-1.1-1.02-1.1h-4.35v2.67H150v5.5l-0.28,0.39l-4.95-8.56h-3.27c-0.25,0-0.39,0.16-0.39,0.42
				c0,0.1,0.03,0.23,0.11,0.36l2.99,5.04l-2.19,2.08c-0.31,0.29-0.53,0.75-0.53,1.24v6.09c0,0.72,0.28,1.11,1.02,1.11h4.32V69.2
				h-1.88v-5.4l0.36-0.49l5.01,8.56h3.15C153.76,71.86,153.87,71.7,153.87,71.47"/>
		</g>
		<rect x="155.01" y="55.52" width="5.22" height="2.77"/>
		<g>
			<path d="M171.5,69.91V56.86c0-0.82-0.25-1.34-0.88-1.34h-5.59v-2.78h-3.49v4.44c0,0.55,0.41,1.1,0.94,1.1h5.56v10.9h-3.43v2.67
				h5.36C170.92,71.86,171.5,70.85,171.5,69.91"/>
			<path d="M185.62,71.86v-15c0-0.82-0.3-1.34-0.94-1.34h-11.26v2.77h1.39v10.8h-2.19v2.77h4.7c0.64,0,0.94-0.52,0.94-1.34V58.29
				h3.9v13.57H185.62z"/>
			<path d="M117.67,45.07h-2.08v4.64h6.7c0.78,0,1.2-0.59,1.2-1.52"/>
			<path class="st3" d="M48.31,62.43c18.32-57.97,62.16-49.72,62.16-49.72c-36.08,1.21-50.03,50.13-51.62,59.41
				C55.16,68.22,51.63,65.03,48.31,62.43"/>
			<path class="st4" d="M50.47,53.77c-1.11,2.66-1.99,5.18-2.96,8.05l-0.17-0.17c-0.67-0.56-3.6-2.65-7.84-1.09
				c-1.4,0.4-3.57,1.77-3.57,1.77c0.83-0.91,2.85-2.16,3.03-2.27c-3.56,2.09-3.39,2.77-3.39,2.77c-0.24-0.42,0.05-0.81,0.05-0.81
				c0.51-0.58,1.97-1.85,3.16-2.78c0.12-1.68,0.64-2.68,1.36-3.27c-8.3-5.1-15.18-4.62-17.67-3.47
				C22.75,52.23,27.72,44.54,50.47,53.77"/>
		</g>
	</g>
</g>
</svg>
